<svg width="19" height="22" viewBox="0 0 19 22" fill="none" xmlns="http://www.w3.org/2000/svg">
<path d="M11.5 1.00293V5.00293C11.5 5.53336 11.7107 6.04207 12.0858 6.41714C12.4609 6.79222 12.9696 7.00293 13.5 7.00293H17.5M7.5 8.00293H5.5M13.5 12.0029H5.5M13.5 16.0029H5.5M12.5 1.00293H3.5C2.96957 1.00293 2.46086 1.21364 2.08579 1.58872C1.71071 1.96379 1.5 2.4725 1.5 3.00293V19.0029C1.5 19.5334 1.71071 20.0421 2.08579 20.4171C2.46086 20.7922 2.96957 21.0029 3.5 21.0029H15.5C16.0304 21.0029 16.5391 20.7922 16.9142 20.4171C17.2893 20.0421 17.5 19.5334 17.5 19.0029V6.00293L12.5 1.00293Z" stroke="#878D98" stroke-width="2" stroke-linecap="round" stroke-linejoin="round"/>
</svg>
