<svg width="1248" height="114" viewBox="0 0 1248 114" fill="none" xmlns="http://www.w3.org/2000/svg">
<g opacity="0.2">
<path d="M21.5236 113.17C21.5236 103.839 25.303 94.8904 32.0305 88.2924C38.7579 81.6943 47.8823 77.9876 57.3963 77.9876V113.17H114.793V0.585938C114.793 15.5155 108.745 29.8337 97.9816 40.3905C87.2177 50.9473 72.6187 56.8781 57.3963 56.8781C42.1738 56.8781 27.5749 62.8088 16.811 73.3657C6.04709 83.9225 0 98.2406 0 113.17H21.5236Z" fill="white" fill-opacity="0.8"/>
<path d="M93.2672 0.585938H57.3945V35.7685C66.9086 35.7685 76.0329 32.0618 82.7603 25.4638C89.4878 18.8658 93.2672 9.91694 93.2672 0.585938Z" fill="white" fill-opacity="0.8"/>
<path d="M163.96 17.7279H184.649V111.816H163.96V17.7279ZM192.94 43.6879H210.73V53.1758H211.126C213.498 49.2225 216.572 46.3673 220.35 44.6103C224.127 42.7654 227.993 41.843 231.946 41.843C236.954 41.843 241.039 42.5458 244.201 43.9514C247.452 45.2692 250 47.158 251.845 49.6178C253.689 51.9898 254.963 54.9328 255.666 58.4469C256.457 61.873 256.852 65.6946 256.852 69.9114V111.816H238.14V73.3376C238.14 67.7152 237.261 63.5422 235.504 60.8188C233.747 58.0076 230.628 56.602 226.148 56.602C221.053 56.602 217.363 58.1394 215.079 61.2142C212.795 64.2011 211.653 69.1647 211.653 76.1049V111.816H192.94V43.6879ZM267.233 56.2067H256.032V43.6879H267.233V38.4168C267.233 32.3551 269.121 27.3915 272.899 23.526C276.677 19.6606 282.387 17.7279 290.03 17.7279C291.699 17.7279 293.368 17.8157 295.037 17.9914C296.707 18.0793 298.332 18.1671 299.913 18.255V32.2233C297.717 31.9597 295.433 31.828 293.061 31.828C290.513 31.828 288.668 32.4429 287.526 33.6728C286.472 34.8149 285.945 36.7916 285.945 39.6028V43.6879H298.859V56.2067H285.945V111.816H267.233V56.2067ZM310.192 17.7279H328.904V111.816H310.192V17.7279ZM381.658 70.4385C380.779 65.6946 379.198 62.0927 376.914 59.6328C374.718 57.173 371.335 55.9431 366.767 55.9431C363.78 55.9431 361.276 56.4702 359.256 57.5244C357.323 58.4908 355.742 59.7207 354.512 61.2142C353.37 62.7076 352.535 64.289 352.008 65.9581C351.569 67.6273 351.305 69.1208 351.217 70.4385H381.658ZM351.217 82.2984C351.481 88.3602 353.018 92.7527 355.83 95.4761C358.641 98.1995 362.682 99.5612 367.953 99.5612C371.731 99.5612 374.981 98.6387 377.705 96.7939C380.428 94.8611 382.097 92.8406 382.712 90.7321H399.184C396.549 98.9023 392.508 104.744 387.061 108.258C381.614 111.772 375.025 113.53 367.294 113.53C361.935 113.53 357.104 112.695 352.799 111.026C348.494 109.269 344.848 106.809 341.861 103.646C338.874 100.484 336.546 96.706 334.877 92.3135C333.296 87.9209 332.505 83.0891 332.505 77.818C332.505 72.7227 333.34 67.9787 335.009 63.5861C336.678 59.1936 339.05 55.416 342.125 52.2534C345.2 49.0029 348.846 46.4552 353.062 44.6103C357.367 42.7654 362.111 41.843 367.294 41.843C373.092 41.843 378.144 42.9851 382.449 45.2692C386.753 47.4655 390.267 50.4524 392.991 54.23C395.802 58.0076 397.823 62.3123 399.052 67.1441C400.282 71.9759 400.722 77.0274 400.37 82.2984H351.217ZM420.956 75.9732L398.554 43.6879H419.902L431.894 61.4777L443.754 43.6879H464.442L442.04 75.5778L467.21 111.816H445.862L431.63 90.3368L417.398 111.816H396.446L420.956 75.9732ZM485.673 33.1457H466.961V17.7279H485.673V33.1457ZM466.961 43.6879H485.673V111.816H466.961V43.6879ZM509.104 77.818C509.104 80.5414 509.368 83.2209 509.895 85.8564C510.422 88.4041 511.301 90.7321 512.531 92.8406C513.848 94.8611 515.562 96.4864 517.67 97.7163C519.778 98.9462 522.414 99.5612 525.577 99.5612C528.739 99.5612 531.375 98.9462 533.483 97.7163C535.679 96.4864 537.393 94.8611 538.622 92.8406C539.94 90.7321 540.863 88.4041 541.39 85.8564C541.917 83.2209 542.18 80.5414 542.18 77.818C542.18 75.0946 541.917 72.4152 541.39 69.7797C540.863 67.1441 539.94 64.8161 538.622 62.7955C537.393 60.7749 535.679 59.1497 533.483 57.9198C531.375 56.602 528.739 55.9431 525.577 55.9431C522.414 55.9431 519.778 56.602 517.67 57.9198C515.562 59.1497 513.848 60.7749 512.531 62.7955C511.301 64.8161 510.422 67.1441 509.895 69.7797C509.368 72.4152 509.104 75.0946 509.104 77.818ZM490.392 77.818C490.392 72.3713 491.227 67.4516 492.896 63.059C494.565 58.5786 496.937 54.801 500.012 51.7262C503.087 48.5636 506.776 46.1477 511.081 44.4785C515.386 42.7215 520.218 41.843 525.577 41.843C530.935 41.843 535.767 42.7215 540.072 44.4785C544.465 46.1477 548.198 48.5636 551.273 51.7262C554.348 54.801 556.72 58.5786 558.389 63.059C560.058 67.4516 560.893 72.3713 560.893 77.818C560.893 83.2648 560.058 88.1845 558.389 92.577C556.72 96.9696 554.348 100.747 551.273 103.91C548.198 106.985 544.465 109.357 540.072 111.026C535.767 112.695 530.935 113.53 525.577 113.53C520.218 113.53 515.386 112.695 511.081 111.026C506.776 109.357 503.087 106.985 500.012 103.91C496.937 100.747 494.565 96.9696 492.896 92.577C491.227 88.1845 490.392 83.2648 490.392 77.818ZM565.153 43.6879H582.943V53.1758H583.338C585.71 49.2225 588.785 46.3673 592.562 44.6103C596.34 42.7654 600.205 41.843 604.159 41.843C609.166 41.843 613.251 42.5458 616.414 43.9514C619.664 45.2692 622.212 47.158 624.057 49.6178C625.902 51.9898 627.176 54.9328 627.878 58.4469C628.669 61.873 629.064 65.6946 629.064 69.9114V111.816H610.352V73.3376C610.352 67.7152 609.474 63.5422 607.717 60.8188C605.96 58.0076 602.841 56.602 598.36 56.602C593.265 56.602 589.575 58.1394 587.291 61.2142C585.007 64.2011 583.865 69.1647 583.865 76.1049V111.816H565.153V43.6879ZM686.927 35.1224H658.727V17.7279H735.816V35.1224H707.616V111.816H686.927V35.1224ZM724.685 43.6879H742.475V56.3384H742.738C743.617 54.23 744.803 52.2973 746.296 50.5403C747.79 48.6954 749.503 47.158 751.436 45.9281C753.368 44.6103 755.433 43.6 757.629 42.8972C759.825 42.1944 762.109 41.843 764.481 41.843C765.711 41.843 767.073 42.0626 768.567 42.5019V59.8964C767.688 59.7207 766.634 59.5889 765.404 59.5011C764.174 59.3254 762.988 59.2375 761.846 59.2375C758.42 59.2375 755.521 59.8086 753.149 60.9506C750.777 62.0927 748.844 63.674 747.35 65.6946C745.945 67.6273 744.935 69.9114 744.32 72.547C743.705 75.1825 743.397 78.0377 743.397 81.1124V111.816H724.685V43.6879ZM767.206 64.6404C767.469 60.2478 768.567 56.602 770.5 53.7029C772.433 50.8038 774.893 48.4758 777.879 46.7187C780.866 44.9617 784.205 43.7318 787.894 43.029C791.672 42.2383 795.45 41.843 799.227 41.843C802.653 41.843 806.124 42.1066 809.638 42.6337C813.152 43.0729 816.358 43.9953 819.257 45.401C822.156 46.8066 824.528 48.7832 826.373 51.3309C828.218 53.7907 829.141 57.0852 829.141 61.2142V96.6621C829.141 99.7369 829.316 102.68 829.668 105.491C830.019 108.302 830.634 110.411 831.513 111.816H812.537C812.185 110.762 811.878 109.708 811.614 108.654C811.439 107.512 811.307 106.37 811.219 105.228C808.232 108.302 804.718 110.455 800.677 111.685C796.636 112.915 792.507 113.53 788.29 113.53C785.039 113.53 782.008 113.134 779.197 112.344C776.386 111.553 773.926 110.323 771.818 108.654C769.709 106.985 768.04 104.876 766.81 102.328C765.668 99.7808 765.097 96.7499 765.097 93.2359C765.097 89.3704 765.756 86.2078 767.074 83.748C768.479 81.2003 770.236 79.1797 772.345 77.6863C774.541 76.1928 777.001 75.0946 779.724 74.3918C782.536 73.6012 785.347 72.9862 788.158 72.547C790.969 72.1077 793.737 71.7563 796.46 71.4927C799.183 71.2292 801.599 70.8339 803.708 70.3068C805.816 69.7797 807.485 69.0329 808.715 68.0666C809.945 67.0123 810.516 65.5189 810.428 63.5861C810.428 61.5656 810.077 59.9843 809.374 58.8422C808.759 57.6123 807.881 56.6898 806.739 56.0749C805.684 55.3721 804.41 54.9328 802.917 54.7571C801.511 54.4936 799.974 54.3618 798.305 54.3618C794.615 54.3618 791.716 55.1524 789.608 56.7338C787.499 58.3151 786.269 60.9506 785.918 64.6404H767.206ZM810.428 78.4769C809.638 79.1797 808.627 79.7508 807.397 80.19C806.255 80.5414 804.982 80.8489 803.576 81.1124C802.258 81.376 800.853 81.5956 799.359 81.7713C797.866 81.947 796.372 82.1667 794.879 82.4302C793.473 82.6938 792.067 83.0452 790.662 83.4844C789.344 83.9237 788.158 84.5386 787.104 85.3293C786.137 86.0321 785.347 86.9545 784.732 88.0966C784.117 89.2387 783.809 90.6882 783.809 92.4452C783.809 94.1144 784.117 95.52 784.732 96.6621C785.347 97.8042 786.181 98.7266 787.236 99.4294C788.29 100.044 789.52 100.484 790.925 100.747C792.331 101.011 793.78 101.142 795.274 101.142C798.964 101.142 801.819 100.528 803.839 99.2976C805.86 98.0677 807.353 96.6182 808.32 94.949C809.286 93.192 809.857 91.4349 810.033 89.6779C810.296 87.9209 810.428 86.5153 810.428 85.4611V78.4769ZM835.758 43.6879H853.548V53.1758H853.943C856.315 49.2225 859.39 46.3673 863.168 44.6103C866.945 42.7654 870.811 41.843 874.764 41.843C879.772 41.843 883.857 42.5458 887.019 43.9514C890.27 45.2692 892.818 47.158 894.662 49.6178C896.507 51.9898 897.781 54.9328 898.484 58.4469C899.275 61.873 899.67 65.6946 899.67 69.9114V111.816H880.958V73.3376C880.958 67.7152 880.079 63.5422 878.322 60.8188C876.565 58.0076 873.446 56.602 868.966 56.602C863.871 56.602 860.181 58.1394 857.897 61.2142C855.613 64.2011 854.47 69.1647 854.47 76.1049V111.816H835.758V43.6879ZM920.461 89.6779C920.461 91.6985 920.856 93.4555 921.647 94.949C922.525 96.3546 923.623 97.5406 924.941 98.507C926.259 99.3855 927.752 100.044 929.422 100.484C931.179 100.923 932.98 101.142 934.824 101.142C936.142 101.142 937.504 101.011 938.909 100.747C940.403 100.396 941.721 99.9126 942.863 99.2976C944.093 98.5948 945.103 97.7163 945.894 96.6621C946.684 95.52 947.08 94.1144 947.08 92.4452C947.08 89.634 945.191 87.5256 941.413 86.12C937.723 84.7143 932.54 83.3087 925.864 81.9031C923.14 81.2881 920.461 80.5853 917.825 79.7947C915.278 78.9162 912.993 77.818 910.973 76.5003C908.952 75.0946 907.327 73.3815 906.097 71.361C904.867 69.2525 904.252 66.7049 904.252 63.7179C904.252 59.3254 905.087 55.7235 906.756 52.9122C908.513 50.101 910.797 47.9047 913.608 46.3234C916.42 44.6542 919.582 43.5122 923.096 42.8972C926.61 42.1944 930.212 41.843 933.902 41.843C937.592 41.843 941.15 42.1944 944.576 42.8972C948.09 43.6 951.209 44.786 953.932 46.4552C956.655 48.1244 958.896 50.3646 960.653 53.1758C962.497 55.8992 963.596 59.3693 963.947 63.5861H946.157C945.894 59.9843 944.532 57.5683 942.072 56.3384C939.612 55.0207 936.713 54.3618 933.375 54.3618C932.321 54.3618 931.179 54.4496 929.949 54.6253C928.719 54.7132 927.577 54.9767 926.522 55.416C925.556 55.8553 924.722 56.5141 924.019 57.3926C923.316 58.1833 922.964 59.2814 922.964 60.6871C922.964 62.3562 923.579 63.7179 924.809 64.7721C926.039 65.8263 927.621 66.7049 929.553 67.4077C931.574 68.0226 933.858 68.5937 936.406 69.1208C938.953 69.6479 941.545 70.2189 944.181 70.8339C946.904 71.4488 949.539 72.1956 952.087 73.0741C954.723 73.9526 957.051 75.1386 959.071 76.632C961.092 78.0377 962.717 79.8386 963.947 82.0349C965.177 84.1433 965.792 86.7788 965.792 89.9415C965.792 94.4219 964.869 98.1995 963.025 101.274C961.268 104.261 958.94 106.677 956.04 108.522C953.141 110.367 949.803 111.641 946.025 112.344C942.336 113.134 938.558 113.53 934.693 113.53C930.739 113.53 926.874 113.134 923.096 112.344C919.319 111.553 915.936 110.235 912.949 108.39C910.05 106.545 907.634 104.129 905.702 101.142C903.857 98.0677 902.847 94.2462 902.671 89.6779H920.461ZM1015.22 67.6712C1013.99 59.8525 1009.38 55.9431 1001.39 55.9431C998.399 55.9431 995.895 56.6459 993.875 58.0515C991.854 59.3693 990.185 61.1263 988.867 63.3226C987.637 65.431 986.759 67.803 986.232 70.4385C985.705 72.9862 985.441 75.5339 985.441 78.0816C985.441 80.5414 985.705 83.0452 986.232 85.5928C986.759 88.1405 987.593 90.4686 988.735 92.577C989.965 94.5976 991.591 96.2668 993.611 97.5845C995.632 98.9023 998.092 99.5612 1000.99 99.5612C1005.47 99.5612 1008.9 98.3313 1011.27 95.8714C1013.73 93.3237 1015.27 89.9415 1015.88 85.7246H1033.93C1032.7 94.7733 1029.19 101.67 1023.39 106.414C1017.59 111.158 1010.17 113.53 1001.12 113.53C996.027 113.53 991.327 112.695 987.022 111.026C982.806 109.269 979.204 106.853 976.217 103.778C973.23 100.703 970.902 97.0574 969.233 92.8406C967.563 88.5359 966.729 83.8358 966.729 78.7405C966.729 73.4694 967.476 68.5937 968.969 64.1133C970.55 59.545 972.834 55.6356 975.821 52.3851C978.808 49.0468 982.454 46.4552 986.759 44.6103C991.064 42.7654 995.983 41.843 1001.52 41.843C1005.56 41.843 1009.42 42.3701 1013.11 43.4243C1016.89 44.4785 1020.23 46.1038 1023.13 48.3001C1026.12 50.4085 1028.53 53.0879 1030.38 56.3384C1032.22 59.5011 1033.28 63.2787 1033.54 67.6712H1015.22ZM1036.6 43.6879H1054.39V56.3384H1054.65C1055.53 54.23 1056.72 52.2973 1058.21 50.5403C1059.7 48.6954 1061.42 47.158 1063.35 45.9281C1065.28 44.6103 1067.35 43.6 1069.54 42.8972C1071.74 42.1944 1074.02 41.843 1076.4 41.843C1077.63 41.843 1078.99 42.0626 1080.48 42.5019V59.8964C1079.6 59.7207 1078.55 59.5889 1077.32 59.5011C1076.09 59.3254 1074.9 59.2375 1073.76 59.2375C1070.33 59.2375 1067.43 59.8086 1065.06 60.9506C1062.69 62.0927 1060.76 63.674 1059.26 65.6946C1057.86 67.6273 1056.85 69.9114 1056.23 72.547C1055.62 75.1825 1055.31 78.0377 1055.31 81.1124V111.816H1036.6V43.6879ZM1099.15 33.1457H1080.44V17.7279H1099.15V33.1457ZM1080.44 43.6879H1099.15V111.816H1080.44V43.6879ZM1155.92 77.818C1155.92 74.9189 1155.61 72.1516 1155 69.5161C1154.38 66.8806 1153.42 64.5525 1152.1 62.5319C1150.78 60.5114 1149.11 58.93 1147.09 57.788C1145.16 56.5581 1142.79 55.9431 1139.98 55.9431C1137.25 55.9431 1134.88 56.5581 1132.86 57.788C1130.84 58.93 1129.17 60.5114 1127.85 62.5319C1126.53 64.5525 1125.57 66.8806 1124.95 69.5161C1124.34 72.1516 1124.03 74.9189 1124.03 77.818C1124.03 80.6293 1124.34 83.3526 1124.95 85.9882C1125.57 88.6237 1126.53 90.9518 1127.85 92.9723C1129.17 94.9929 1130.84 96.6182 1132.86 97.8481C1134.88 98.9901 1137.25 99.5612 1139.98 99.5612C1142.79 99.5612 1145.16 98.9901 1147.09 97.8481C1149.11 96.6182 1150.78 94.9929 1152.1 92.9723C1153.42 90.9518 1154.38 88.6237 1155 85.9882C1155.61 83.3526 1155.92 80.6293 1155.92 77.818ZM1105.98 17.7279H1124.69V51.9898H1124.95C1127.24 48.4758 1130.31 45.9281 1134.18 44.3468C1138.13 42.6776 1142.22 41.843 1146.43 41.843C1149.86 41.843 1153.24 42.5458 1156.58 43.9514C1159.92 45.357 1162.91 47.5094 1165.54 50.4085C1168.26 53.3076 1170.46 57.0412 1172.13 61.6095C1173.8 66.0899 1174.63 71.4488 1174.63 77.6863C1174.63 83.9237 1173.8 89.3265 1172.13 93.8948C1170.46 98.3752 1168.26 102.065 1165.54 104.964C1162.91 107.863 1159.92 110.015 1156.58 111.421C1153.24 112.827 1149.86 113.53 1146.43 113.53C1141.43 113.53 1136.95 112.739 1132.99 111.158C1129.04 109.576 1126.05 106.897 1124.03 103.119H1123.77V111.816H1105.98V17.7279ZM1224.49 70.4385C1223.61 65.6946 1222.03 62.0927 1219.74 59.6328C1217.55 57.173 1214.17 55.9431 1209.6 55.9431C1206.61 55.9431 1204.11 56.4702 1202.09 57.5244C1200.15 58.4908 1198.57 59.7207 1197.34 61.2142C1196.2 62.7076 1195.37 64.289 1194.84 65.9581C1194.4 67.6273 1194.14 69.1208 1194.05 70.4385H1224.49ZM1194.05 82.2984C1194.31 88.3602 1195.85 92.7527 1198.66 95.4761C1201.47 98.1995 1205.51 99.5612 1210.78 99.5612C1214.56 99.5612 1217.81 98.6387 1220.53 96.7939C1223.26 94.8611 1224.93 92.8406 1225.54 90.7321H1242.01C1239.38 98.9023 1235.34 104.744 1229.89 108.258C1224.44 111.772 1217.86 113.53 1210.12 113.53C1204.77 113.53 1199.93 112.695 1195.63 111.026C1191.32 109.269 1187.68 106.809 1184.69 103.646C1181.7 100.484 1179.38 96.706 1177.71 92.3135C1176.13 87.9209 1175.34 83.0891 1175.34 77.818C1175.34 72.7227 1176.17 67.9787 1177.84 63.5861C1179.51 59.1936 1181.88 55.416 1184.96 52.2534C1188.03 49.0029 1191.68 46.4552 1195.89 44.6103C1200.2 42.7654 1204.94 41.843 1210.12 41.843C1215.92 41.843 1220.97 42.9851 1225.28 45.2692C1229.58 47.4655 1233.1 50.4524 1235.82 54.23C1238.63 58.0076 1240.65 62.3123 1241.88 67.1441C1243.11 71.9759 1243.55 77.0274 1243.2 82.2984H1194.05Z" fill="white" fill-opacity="0.8"/>
</g>
</svg>
