<svg width="16" height="16" viewBox="0 0 16 16" fill="none" xmlns="http://www.w3.org/2000/svg">
<path d="M7.33372 5.06798L3.33772 10.528C3.24369 10.6564 3.19873 10.8143 3.21096 10.973C3.22318 11.1317 3.29179 11.2808 3.40438 11.3933L3.94905 11.9387C4.06328 12.0528 4.21505 12.1215 4.37616 12.1322C4.53727 12.1429 4.69677 12.0947 4.82505 11.9967L10.0604 8.00065M11.0004 14.1167C10.3337 13.6673 9.58172 13.334 8.66705 13.334C7.29505 13.334 6.04839 14.9047 4.66705 14.6673C3.28572 14.43 2.81705 12.4213 3.66705 11.6673M14.0004 4.66732C14.0004 6.50827 12.508 8.00065 10.6671 8.00065C8.8261 8.00065 7.33372 6.50827 7.33372 4.66732C7.33372 2.82637 8.8261 1.33398 10.6671 1.33398C12.508 1.33398 14.0004 2.82637 14.0004 4.66732Z" stroke="#667085" stroke-width="2" stroke-linecap="round" stroke-linejoin="round"/>
</svg>
