<svg width="39" height="40" viewBox="0 0 39 40" fill="none" xmlns="http://www.w3.org/2000/svg">
<path d="M7.3125 39.2224C7.3125 36.0523 8.59654 33.012 10.8821 30.7703C13.1677 28.5287 16.2677 27.2694 19.5 27.2694V39.2224H39V0.972656C39 6.04489 36.9455 10.9094 33.2886 14.496C29.6316 18.0826 24.6717 20.0975 19.5 20.0975C14.3283 20.0975 9.36838 22.1125 5.71142 25.6991C2.05446 29.2857 0 34.1502 0 39.2224H7.3125Z" fill="white"/>
<path d="M31.6875 0.972656H19.5V12.9257C22.7323 12.9257 25.8323 11.6664 28.1179 9.42474C30.4035 7.18311 31.6875 4.1428 31.6875 0.972656Z" fill="white"/>
</svg>
